<svg width="199" height="75" viewBox="0 0 199 75" fill="none" xmlns="http://www.w3.org/2000/svg">
<path d="M14.7484 42.7599H18.1238V45.4555H14.7484V48.8907H8.558C5.90116 48.8907 3.88243 48.2347 2.49884 46.9226C1.11526 45.6166 0.423462 43.738 0.423462 41.2809V32.0491H3.15486V40.947C3.15486 42.8315 3.68265 44.1793 4.74121 44.9904C5.80574 45.7925 7.21616 46.1951 8.97547 46.1951H12.0528V23.1631H14.7484V42.7599Z" fill="white"/>
<path d="M22.6573 45.4559H17.5762V42.7603H22.6573V45.4559Z" fill="white"/>
<path d="M27.1916 45.4559H22.1105V42.7603H27.1916V45.4559Z" fill="white"/>
<path d="M38.656 45.4556H26.645V42.76H31.0105V30.1765H33.7299V42.76H38.656V45.4556ZM30.1398 51.8368C29.7163 51.8368 29.3436 51.6967 29.0186 51.4194C28.6995 51.1391 28.5415 50.7753 28.5415 50.322C28.5415 49.8837 28.6965 49.5169 29.0067 49.2247C29.3168 48.9295 29.6925 48.7834 30.1398 48.7834C30.593 48.7834 30.9747 48.9295 31.2848 49.2247C31.6009 49.5169 31.7619 49.8837 31.7619 50.322C31.7619 50.7753 31.5979 51.1391 31.2729 51.4194C30.9538 51.6967 30.5751 51.8368 30.1398 51.8368ZM34.7557 51.8368C34.3084 51.8368 33.9267 51.6967 33.6107 51.4194C33.2916 51.1391 33.1336 50.7753 33.1336 50.322C33.1336 49.8837 33.2886 49.5169 33.5987 49.2247C33.9089 48.9295 34.2935 48.7834 34.7557 48.7834C35.1911 48.7834 35.5668 48.9295 35.8769 49.2247C36.187 49.5169 36.3421 49.8837 36.3421 50.322C36.3421 50.7753 36.181 51.1391 35.865 51.4194C35.5459 51.6967 35.1761 51.8368 34.7557 51.8368Z" fill="white"/>
<path d="M43.1856 45.4559H38.1045V42.7603H43.1856V45.4559Z" fill="white"/>
<path d="M47.7199 45.4559H42.6388V42.7603H47.7199V45.4559Z" fill="white"/>
<path d="M52.2544 45.4559H47.1733V42.7603H52.2544V45.4559Z" fill="white"/>
<path d="M56.7887 45.4559H51.7076V42.7603H56.7887V45.4559Z" fill="white"/>
<path d="M62.0983 30.1766H68.8254C71.4644 30.1766 73.4712 30.8386 74.8488 32.1566C76.2235 33.4776 76.9123 35.383 76.9123 37.8699V45.4557H56.2419V42.7601H59.3789V28.6976H62.0983V30.1766ZM62.0983 42.7601H74.1928V37.4285C74.1928 35.8392 73.7276 34.6822 72.7973 33.9577C71.8729 33.236 70.6265 32.8723 69.0521 32.8723H62.0983V42.7601Z" fill="white"/>
<path d="M92.7037 42.76H96.0672V45.4556H92.6798C92.647 47.7039 92.1013 49.2754 91.0457 50.167C89.9961 51.0556 88.4813 51.5028 86.5014 51.5028C85.7678 51.5028 85.0522 51.4462 84.3544 51.3359C83.6626 51.2226 82.9172 51.0317 82.124 50.7633L81.635 47.9008C83.3197 48.4882 84.9061 48.7834 86.394 48.7834C87.4675 48.7834 88.3322 48.5568 88.9942 48.1035C89.6532 47.6562 89.9842 46.8571 89.9842 45.7061V45.4556H88.362C86.6743 45.4556 85.2013 45.1425 83.937 44.5133C82.6786 43.8782 81.6976 42.9926 80.9909 41.8535C80.2812 40.7174 79.9293 39.3905 79.9293 37.8697V37.8459C79.9293 36.3043 80.2931 34.9565 81.0266 33.8025C81.7572 32.6515 82.783 31.7599 84.1039 31.1307C85.4219 30.4956 86.9606 30.1765 88.7199 30.1765H92.489C92.5277 30.1765 92.5635 30.1765 92.5963 30.1765C92.6351 30.1765 92.6619 30.1765 92.6798 30.1765H92.7037V42.76ZM88.1712 42.76H89.9842V32.8363H88.1712C87.056 32.8363 86.072 33.0391 85.2132 33.4446C84.3604 33.8502 83.6924 34.4316 83.2094 35.1861C82.7233 35.9345 82.4818 36.8201 82.4818 37.8459V37.8697C82.4818 38.8657 82.7233 39.7274 83.2094 40.458C83.6924 41.1915 84.3604 41.7581 85.2132 42.1636C86.072 42.5632 87.056 42.76 88.1712 42.76Z" fill="white"/>
<path d="M100.593 45.4559H95.5122V42.7603H100.593V45.4559Z" fill="white"/>
<path d="M105.127 45.4559H100.046V42.7603H105.127V45.4559Z" fill="white"/>
<path d="M108.946 26.8251C108.523 26.8251 108.153 26.6909 107.837 26.4196C107.518 26.1423 107.36 25.7725 107.36 25.3103C107.36 24.875 107.515 24.5112 107.825 24.2249C108.135 23.9387 108.508 23.7955 108.946 23.7955C109.405 23.7955 109.793 23.9387 110.103 24.2249C110.413 24.5112 110.568 24.875 110.568 25.3103C110.568 25.7725 110.407 26.1423 110.091 26.4196C109.772 26.6909 109.39 26.8251 108.946 26.8251ZM113.562 26.8251C113.124 26.8251 112.742 26.6909 112.417 26.4196C112.098 26.1423 111.94 25.7725 111.94 25.3103C111.94 24.875 112.095 24.5112 112.405 24.2249C112.721 23.9387 113.109 23.7955 113.562 23.7955C114.006 23.7955 114.385 23.9387 114.695 24.2249C115.005 24.5112 115.16 24.875 115.16 25.3103C115.16 25.7725 114.996 26.1423 114.671 26.4196C114.352 26.6909 113.982 26.8251 113.562 26.8251ZM112.608 45.4558H104.581V42.7602H109.912V30.1767H112.608V45.4558Z" fill="white"/>
<mask id="mask0_1203_1907" style="mask-type:luminance" maskUnits="userSpaceOnUse" x="133" y="0" width="66" height="75">
<path d="M133.16 0H199V75H133.16V0Z" fill="white"/>
</mask>
<g mask="url(#mask0_1203_1907)">
<path d="M195.275 36.9842H183.977C181.899 36.9842 180.211 38.669 180.211 40.7473V52.0456C180.211 52.1142 180.226 52.1769 180.232 52.2425L170.407 62.0647H164.956L158.077 55.1885C158.19 54.777 158.265 54.3536 158.265 53.9063V38.8419C158.265 38.3976 158.187 37.9712 158.077 37.5597L161.834 33.8056C161.899 33.8056 161.962 33.8234 162.031 33.8234H173.326C175.407 33.8234 177.092 32.1387 177.092 30.0573V18.762C177.092 16.6837 175.407 14.9959 173.326 14.9959H162.031C161.962 14.9959 161.899 15.0108 161.834 15.0138L155.918 9.09778V2.60326C155.918 1.21669 154.791 0.0925293 153.407 0.0925293H145.875C144.488 0.0925293 143.364 1.21669 143.364 2.60326V10.1355C143.364 11.5191 144.488 12.6462 145.875 12.6462H152.366L158.285 18.5622C158.282 18.6278 158.265 18.6934 158.265 18.759V30.0573C158.265 30.1229 158.279 30.1856 158.285 30.2512L154.528 34.0083C154.117 33.898 153.69 33.8234 153.243 33.8234H138.182C135.408 33.8234 133.16 36.0688 133.16 38.8419V53.9063C133.16 56.6795 135.408 58.9278 138.182 58.9278H153.246C153.693 58.9278 154.117 58.8503 154.531 58.7429L161.404 65.6161V72.1077C161.404 73.4942 162.529 74.6184 163.915 74.6184H171.447C172.834 74.6184 173.958 73.4942 173.958 72.1077V65.6161L183.783 55.7909C183.849 55.7909 183.912 55.8088 183.98 55.8088H195.278C197.357 55.8088 199.045 54.121 199.045 52.0427V40.7473C199.045 38.666 197.357 36.9812 195.278 36.9812L195.275 36.9842Z" fill="white"/>
</g>
</svg>
